<svg width="453" height="454" viewBox="0 0 453 454" fill="none" xmlns="http://www.w3.org/2000/svg">
<path d="M96.3254 177.263V266.863H122.181V177.263H96.3254ZM151.237 177.263L115.013 220.015L152.005 266.863H182.085L144.581 219.247L180.165 177.263H151.237ZM196.966 231.151H266.726V209.007H196.966V231.151ZM251.11 177.263V266.863H275.942V177.263H251.11ZM190.95 177.263V266.863H215.782V177.263H190.95ZM367.797 177.263H342.197L319.413 228.591H329.525L310.965 177.263H283.573L312.757 239.343L300.597 266.863H325.685L367.797 177.263Z" fill="#F8C64D"/>
<path d="M398.734 226.863C398.734 322.132 321.503 399.363 226.234 399.363C130.965 399.363 53.7344 322.132 53.7344 226.863C53.7344 131.594 130.965 54.3633 226.234 54.3633C321.503 54.3633 398.734 131.594 398.734 226.863Z" stroke="#F8C64D" stroke-width="5"/>
<path d="M438.942 231.378L414.501 229.678L414.01 236.731L438.451 238.431L438.942 231.378ZM437.9 246.357L426.925 235.665L413.444 244.866L412.874 253.072L426.574 243.745L437.351 254.248L437.9 246.357Z" fill="#F8C64D"/>
<path d="M419.3 276.06L425.429 277.529L416.969 258.257L410.84 256.788L419.3 276.06ZM426.603 266.009L427.793 260.358L410.84 256.788L414.787 263.52L426.603 266.009ZM425.429 277.529L421.481 270.796L409.666 268.308L408.476 273.959L425.429 277.529Z" fill="#F8C64D"/>
<path d="M412.348 284.824L407.445 299.016C407.738 299.167 408.017 299.288 408.282 299.379C408.547 299.471 408.745 299.539 408.877 299.585C410.487 300.141 411.965 300.294 413.311 300.043C414.679 299.8 415.889 299.156 416.94 298.112C417.992 297.069 418.846 295.598 419.501 293.702C420.103 291.959 420.353 290.379 420.25 288.961C420.14 287.566 419.733 286.351 419.028 285.318C418.324 284.284 417.381 283.44 416.2 282.785C415.951 282.65 415.697 282.525 415.44 282.412C415.183 282.298 414.911 282.192 414.625 282.093C413.103 281.567 411.618 281.436 410.168 281.701C408.741 281.973 407.453 282.664 406.305 283.773C405.156 284.882 404.239 286.429 403.554 288.414C403.028 289.936 402.77 291.291 402.779 292.479C402.81 293.675 403.038 294.765 403.462 295.752C403.909 296.745 404.519 297.659 405.292 298.494L408.101 293.688C407.802 293.338 407.577 292.952 407.427 292.53C407.299 292.115 407.234 291.66 407.232 291.166C407.252 290.679 407.361 290.149 407.559 289.576C407.742 289.046 408.038 288.581 408.448 288.18C408.881 287.786 409.433 287.545 410.106 287.456C410.8 287.375 411.644 287.506 412.636 287.849L413.341 288.167C414.113 288.433 414.725 288.768 415.178 289.172C415.624 289.597 415.907 290.065 416.026 290.576C416.161 291.116 416.121 291.695 415.908 292.312C415.725 292.841 415.473 293.248 415.153 293.532C414.833 293.817 414.451 293.993 414.007 294.062C413.564 294.131 413.055 294.104 412.481 293.979L415.292 285.841L412.348 284.824Z" fill="#F8C64D"/>
<path d="M404.877 308.657L403.047 307.777L401.029 311.971C400.887 312.265 400.729 312.487 400.553 312.636C400.399 312.795 400.234 312.896 400.057 312.941C399.891 313.016 399.725 313.04 399.557 313.011C399.401 313.013 399.238 312.974 399.07 312.893C398.755 312.741 398.511 312.494 398.339 312.153C398.167 311.811 398.222 311.345 398.506 310.757L400.524 306.562L397.308 305.014L394.363 311.132C393.564 312.793 393.37 314.163 393.783 315.243C394.207 316.353 394.966 317.171 396.059 317.697C397.005 318.153 397.852 318.275 398.6 318.066C399.349 317.856 400.02 317.403 400.615 316.705C401.21 316.007 401.75 315.154 402.236 314.144L404.877 308.657ZM404.246 308.353L401.757 313.525C401.322 314.43 401.053 315.31 400.951 316.168C400.86 317.056 400.966 317.858 401.269 318.573C401.593 319.299 402.165 319.859 402.985 320.254C403.931 320.709 404.8 320.842 405.59 320.653C406.401 320.474 407.115 320.066 407.732 319.431C408.359 318.827 408.891 318.072 409.326 317.168L411.815 311.996L408.598 310.448L406.731 314.327C406.539 314.727 406.271 314.96 405.928 315.028C405.595 315.127 405.271 315.1 404.956 314.949C404.809 314.878 404.677 314.775 404.56 314.642C404.454 314.539 404.363 314.405 404.288 314.239C404.233 314.083 404.21 313.916 404.218 313.739C404.215 313.582 404.265 313.399 404.366 313.189L406.233 309.31L404.246 308.353ZM413.318 308.874L398.81 301.892L396.306 307.096L410.813 314.078L413.318 308.874Z" fill="#F8C64D"/>
<path d="M393.355 329.423C393.948 329.795 394.389 330.277 394.678 330.871C394.967 331.465 395.089 332.106 395.044 332.793C394.999 333.481 394.791 334.121 394.419 334.715C394.159 335.13 393.811 335.532 393.376 335.92C392.96 336.32 392.478 336.651 391.928 336.913C391.367 337.194 390.782 337.337 390.173 337.342L394.979 340.351C395.553 340.049 396.143 339.634 396.75 339.105C397.376 338.589 398.023 337.797 398.692 336.729C399.67 335.166 400.246 333.586 400.42 331.988C400.614 330.403 400.4 328.92 399.778 327.54C399.163 326.191 398.124 325.059 396.66 324.143C395.216 323.239 393.744 322.799 392.243 322.823C390.729 322.866 389.292 323.315 387.931 324.17C386.589 325.037 385.43 326.252 384.452 327.814C383.783 328.882 383.343 329.805 383.133 330.581C382.942 331.37 382.846 332.094 382.845 332.755L387.651 335.763C387.409 335.227 387.27 334.658 387.233 334.057C387.204 333.488 387.269 332.923 387.428 332.361C387.586 331.8 387.82 331.272 388.13 330.778C388.501 330.184 388.967 329.705 389.526 329.339C390.105 328.986 390.725 328.809 391.385 328.81C392.045 328.81 392.702 329.015 393.355 329.423Z" fill="#F8C64D"/>
<path d="M391.48 347.007L378.887 336.975L375.289 341.492L387.882 351.524L391.48 347.007ZM384.262 356.068L383.335 346.559L371.146 346.694L366.762 352.196L378.864 352.171L379.791 361.68L384.262 356.068Z" fill="#F8C64D"/>
<path d="M359.329 375.085L363.61 379.71L367.276 358.985L362.995 354.359L359.329 375.085ZM370.983 370.781L375.111 366.743L362.995 354.359L362.539 362.151L370.983 370.781ZM363.61 379.71L364.066 371.919L355.621 363.288L351.493 367.327L363.61 379.71Z" fill="#F8C64D"/>
<path d="M339.553 390.704L343.212 395.836L349.481 375.744L345.822 370.612L339.553 390.704ZM351.66 387.916L356.268 384.434L345.822 370.612L344.38 378.283L351.66 387.916ZM343.212 395.836L344.654 388.166L337.374 378.532L332.767 382.014L343.212 395.836ZM358.741 392.874C358.151 392.092 357.439 391.519 356.607 391.153C355.771 390.82 354.867 390.728 353.897 390.876C352.922 391.057 351.951 391.513 350.983 392.245C349.997 392.99 349.292 393.8 348.871 394.674C348.464 395.567 348.315 396.454 348.426 397.336C348.532 398.25 348.88 399.098 349.471 399.88L352.459 397.622C352.191 397.269 352.057 396.917 352.056 396.567C352.036 396.231 352.114 395.909 352.29 395.6C352.448 395.305 352.666 395.052 352.946 394.841C353.206 394.645 353.509 394.503 353.854 394.418C354.18 394.347 354.512 394.36 354.848 394.457C355.166 394.567 355.458 394.8 355.726 395.153L358.741 392.874Z" fill="#F8C64D"/>
<path d="M320.565 396.983L308.69 402.972L310.629 406.816L322.504 400.827L320.565 396.983ZM315.337 410.556L308.087 396.181L302.931 398.782L310.181 413.157L315.337 410.556ZM326.431 404.961L319.181 390.586L314.025 393.187L321.275 407.562L326.431 404.961Z" fill="#F8C64D"/>
<path d="M293.99 407.471C294.108 407.8 294.122 408.117 294.033 408.422C293.93 408.756 293.726 409.052 293.422 409.31C293.125 409.59 292.746 409.812 292.285 409.977C291.45 410.276 290.723 410.425 290.103 410.424C289.483 410.423 288.839 410.319 288.17 410.113L289.09 412.683C289.426 412.86 289.908 412.96 290.536 412.983C291.15 413.036 291.832 413.002 292.582 412.882C293.34 412.784 294.07 412.609 294.773 412.358C296.091 411.885 297.174 411.275 298.021 410.525C298.868 409.776 299.436 408.94 299.725 408.019C300.015 407.097 299.983 406.142 299.629 405.153C299.282 404.187 298.753 403.435 298.04 402.897C297.312 402.389 296.465 402.098 295.496 402.024C294.514 401.979 293.473 402.153 292.375 402.547C291.32 402.924 290.439 403.439 289.73 404.089C289.029 404.761 288.559 405.525 288.319 406.379C288.066 407.263 288.112 408.188 288.458 409.154L289.67 410.877C289.395 410.108 289.321 409.453 289.449 408.911C289.585 408.391 289.86 407.946 290.272 407.575C290.671 407.234 291.133 406.969 291.661 406.781C291.968 406.67 292.291 406.604 292.63 406.582C292.955 406.59 293.241 406.661 293.488 406.795C293.712 406.938 293.879 407.163 293.99 407.471ZM298.533 412.163C298.347 412.404 298.032 412.702 297.59 413.059C297.155 413.438 296.647 413.818 296.065 414.2C295.461 414.59 294.797 414.914 294.072 415.174C293.237 415.473 292.54 415.5 291.981 415.254C291.408 415.038 291.012 414.622 290.791 414.007L287.451 404.682L282.015 406.629L285.815 417.239C286.2 418.316 286.856 419.109 287.783 419.62C288.687 420.139 289.767 420.384 291.021 420.356C292.283 420.351 293.628 420.092 295.055 419.58C296.417 419.093 297.658 418.438 298.776 417.616C299.902 416.816 300.874 416.034 301.691 415.271L298.533 412.163Z" fill="#F8C64D"/>
<path d="M260.924 416.8L263.357 427.733L269.267 426.417L266.834 415.485L271.685 414.405L274.119 425.337L280.029 424.022L276.531 408.306L262.695 411.386L261.889 407.765L256.32 409.004L258.19 417.409L260.924 416.8Z" fill="#F8C64D"/>
<path d="M236.322 425.817L236.73 432.107L252.64 418.327L252.232 412.038L236.322 425.817ZM248.083 429.823L253.833 429.289L252.232 412.038L246.967 417.799L248.083 429.823ZM236.73 432.107L241.995 426.345L240.879 414.322L235.129 414.856L236.73 432.107Z" fill="#F8C64D"/>
<path d="M228.653 423.116C228.712 421.414 228.356 419.919 227.583 418.631C226.811 417.344 225.725 416.326 224.327 415.577C222.905 414.85 221.296 414.456 219.5 414.393C217.682 414.33 216.049 414.612 214.603 415.239C213.156 415.889 212.003 416.829 211.143 418.06C210.26 419.29 209.789 420.756 209.729 422.459C209.669 424.184 210.037 425.691 210.833 426.98C211.606 428.267 212.691 429.274 214.09 430C215.488 430.749 217.097 431.155 218.916 431.218C220.711 431.28 222.344 430.987 223.814 430.338C225.26 429.711 226.413 428.782 227.273 427.551C228.133 426.32 228.593 424.842 228.653 423.116ZM222.427 422.9C222.401 423.646 222.239 424.271 221.941 424.774C221.62 425.3 221.209 425.694 220.71 425.957C220.21 426.22 219.669 426.341 219.086 426.321C218.503 426.301 217.972 426.142 217.492 425.845C217.012 425.549 216.629 425.127 216.345 424.58C216.059 424.056 215.93 423.421 215.956 422.675C215.982 421.929 216.155 421.293 216.477 420.767C216.798 420.265 217.208 419.882 217.708 419.619C218.206 419.38 218.747 419.27 219.33 419.29C219.913 419.311 220.445 419.457 220.926 419.731C221.406 420.028 221.789 420.438 222.074 420.962C222.335 421.508 222.453 422.154 222.427 422.9Z" fill="#F8C64D"/>
<path d="M201.743 419.828L188.625 417.637L187.915 421.883L201.034 424.074L201.743 419.828ZM189.501 427.683L192.154 411.803L186.458 410.852L183.805 426.732L189.501 427.683ZM201.756 429.731L204.409 413.851L198.713 412.899L196.06 428.779L201.756 429.731Z" fill="#F8C64D"/>
<path d="M174.147 412.592C174.048 412.927 173.872 413.192 173.62 413.385C173.34 413.594 173 413.713 172.603 413.741C172.198 413.792 171.761 413.748 171.291 413.609C170.441 413.358 169.766 413.049 169.266 412.682C168.766 412.315 168.307 411.851 167.889 411.29L167.116 413.908C167.282 414.249 167.612 414.614 168.106 415.003C168.57 415.408 169.14 415.783 169.817 416.129C170.486 416.498 171.179 416.788 171.895 416.999C173.238 417.396 174.472 417.542 175.598 417.437C176.724 417.331 177.676 416.992 178.454 416.419C179.231 415.846 179.769 415.056 180.067 414.049C180.358 413.065 180.374 412.145 180.116 411.29C179.828 410.451 179.316 409.715 178.578 409.084C177.811 408.468 176.868 407.994 175.749 407.664C174.675 407.346 173.66 407.241 172.704 407.348C171.741 407.477 170.911 407.815 170.214 408.363C169.488 408.927 168.979 409.702 168.688 410.686L168.65 412.792C168.881 412.009 169.209 411.436 169.632 411.075C170.048 410.735 170.532 410.538 171.084 410.482C171.607 410.442 172.137 410.501 172.674 410.66C172.987 410.752 173.287 410.89 173.574 411.072C173.832 411.27 174.021 411.496 174.14 411.75C174.237 411.998 174.24 412.278 174.147 412.592ZM175.045 419.061C174.753 419.145 174.323 419.201 173.755 419.228C173.181 419.277 172.546 419.284 171.851 419.249C171.133 419.207 170.405 419.077 169.667 418.859C168.817 418.607 168.238 418.218 167.932 417.689C167.597 417.177 167.522 416.607 167.707 415.98L170.515 406.482L164.977 404.845L161.782 415.653C161.458 416.749 161.519 417.777 161.966 418.736C162.39 419.689 163.116 420.524 164.145 421.241C165.167 421.982 166.406 422.567 167.86 422.996C169.247 423.406 170.635 423.61 172.023 423.606C173.404 423.625 174.65 423.568 175.76 423.433L175.045 419.061Z" fill="#F8C64D"/>
<path d="M136.873 410.603L152.272 417.32L155.798 409.236C156.134 408.466 156.579 408.087 157.134 408.1C157.667 408.103 158.254 408.245 158.896 408.525L161.051 403.585C159.083 402.726 157.464 402.236 156.193 402.115C154.913 402.015 153.885 402.241 153.11 402.793C152.325 403.367 151.68 404.232 151.177 405.387L149.161 410.006L144.349 407.907L148.604 398.155L143.31 395.846L136.873 410.603Z" fill="#F8C64D"/>
<path d="M128.869 406.429L137.058 392.567L131.845 389.487L123.656 403.349L128.869 406.429ZM129.208 396.222L125.953 394.3C125.551 394.062 125.299 393.778 125.197 393.447C125.095 393.115 125.144 392.779 125.346 392.437C125.477 392.216 125.646 392.045 125.853 391.923C126.048 391.822 126.27 391.791 126.518 391.829C126.747 391.855 126.991 391.946 127.253 392.1L130.507 394.023L132.839 390.075L128.53 387.529C127.566 386.96 126.577 386.66 125.565 386.631C124.552 386.602 123.599 386.839 122.706 387.341C121.813 387.843 121.076 388.587 120.494 389.571C119.616 391.058 119.468 392.433 120.048 393.698C120.597 394.971 121.585 396.028 123.011 396.871L127.321 399.417L129.208 396.222Z" fill="#F8C64D"/>
<path d="M113.62 385.448L103.098 377.314L100.465 380.72L110.987 388.854L113.62 385.448ZM99.119 386.581L108.966 373.843L104.397 370.311L94.55 383.049L99.119 386.581ZM108.949 394.18L118.796 381.442L114.227 377.91L104.38 390.648L108.949 394.18Z" fill="#F8C64D"/>
<path d="M75.1009 364.166L86.6902 352.99L82.4872 348.632L70.8978 359.808L75.1009 364.166ZM87.6371 377.166L99.2265 365.991L95.0234 361.632L83.4341 372.808L87.6371 377.166ZM90.6856 367.42L88.0617 364.699C87.7377 364.363 87.5707 364.021 87.5605 363.675C87.5503 363.328 87.6879 363.017 87.9735 362.742C88.1582 362.563 88.3667 362.444 88.5988 362.382C88.8142 362.336 89.0364 362.365 89.2656 362.468C89.4785 362.554 89.6903 362.707 89.9009 362.925L92.5247 365.646L95.8252 362.464L92.351 358.861C91.5735 358.055 90.7007 357.502 89.7325 357.204C88.7643 356.906 87.7829 356.88 86.7884 357.126C85.7938 357.372 84.885 357.892 84.062 358.685C82.8191 359.884 82.3089 361.17 82.5315 362.544C82.721 363.917 83.3908 365.2 84.5408 366.392L88.015 369.995L90.6856 367.42Z" fill="#F8C64D"/>
<path d="M59.9966 336.634L54.786 340.179L74.7358 346.887L79.9464 343.341L59.9966 336.634ZM62.5189 348.799L65.8989 353.482L79.9464 343.341L72.3095 341.732L62.5189 348.799ZM54.786 340.179L62.4228 341.789L72.2135 334.722L68.8335 330.039L54.786 340.179ZM57.4067 355.77C58.2013 355.196 58.7905 354.498 59.1743 353.674C59.5255 352.845 59.6376 351.944 59.5107 350.971C59.3512 349.992 58.9164 349.011 58.2062 348.027C57.4824 347.024 56.6881 346.303 55.8234 345.862C54.9397 345.435 54.0559 345.268 53.1721 345.359C52.2557 345.445 51.4002 345.775 50.6056 346.348L52.7975 349.385C53.157 349.125 53.5117 348.999 53.8616 349.005C54.1979 348.992 54.5184 349.078 54.8231 349.261C55.1142 349.425 55.3621 349.649 55.567 349.932C55.7582 350.197 55.8926 350.503 55.9703 350.85C56.0343 351.178 56.0143 351.509 55.9102 351.843C55.7924 352.158 55.5538 352.445 55.1943 352.705L57.4067 355.77Z" fill="#F8C64D"/>
<path d="M29.5329 308.156L32.5451 314.475L47.895 314.059L46.7052 311.563L36.22 322.184L39.4431 328.945L51.3321 314.437L59.5556 314.2L56.6036 308.008L29.5329 308.156Z" fill="#F8C64D"/>
<path d="M43.7763 294.357L39.6707 281.707L35.576 283.035L39.6815 295.686L43.7763 294.357ZM31.1605 287.118L46.4742 282.148L44.6915 276.655L29.3778 281.625L31.1605 287.118ZM34.996 298.936L50.3097 293.966L48.527 288.473L33.2133 293.443L34.996 298.936Z" fill="#F8C64D"/>
<path d="M29.1041 255.603L22.879 256.588L38.0631 271.163L44.2882 270.178L29.1041 255.603ZM26.1974 267.682L27.2577 273.359L44.2882 270.178L38.0671 265.465L26.1974 267.682ZM22.879 256.588L29.1001 261.301L40.9698 259.084L39.9095 253.407L22.879 256.588Z" fill="#F8C64D"/>
<path d="M30.5161 243.778L32.5418 243.645L32.2367 239C32.2153 238.674 32.2443 238.403 32.3236 238.188C32.3797 237.973 32.4738 237.804 32.6058 237.678C32.7131 237.531 32.8467 237.428 33.0066 237.371C33.1417 237.292 33.3024 237.246 33.4886 237.234C33.8379 237.211 34.1715 237.306 34.4895 237.519C34.8074 237.732 34.9878 238.165 35.0307 238.817L35.3357 243.461L38.8981 243.228L38.4531 236.452C38.3322 234.613 37.8267 233.325 36.9366 232.588C36.0216 231.83 34.9587 231.49 33.748 231.57C32.7002 231.639 31.9021 231.948 31.3537 232.499C30.8053 233.049 30.4437 233.775 30.269 234.675C30.0943 235.575 30.0436 236.584 30.117 237.701L30.5161 243.778ZM31.2146 243.732L30.8384 238.005C30.7727 237.003 30.5733 236.104 30.2404 235.308C29.8827 234.49 29.3959 233.843 28.7802 233.369C28.1412 232.897 27.3677 232.691 26.4597 232.75C25.4119 232.819 24.5905 233.13 23.9955 233.684C23.3772 234.239 22.9559 234.945 22.7316 235.801C22.4824 236.636 22.3907 237.554 22.4565 238.555L22.8327 244.283L26.395 244.049L26.1129 239.753C26.0838 239.311 26.2021 238.975 26.4677 238.748C26.7086 238.498 27.0036 238.362 27.3528 238.339C27.5158 238.328 27.6811 238.352 27.8487 238.411C27.9914 238.449 28.1365 238.521 28.2838 238.628C28.4079 238.737 28.5102 238.871 28.5907 239.029C28.6698 239.164 28.7169 239.348 28.7322 239.581L29.0144 243.877L31.2146 243.732ZM23.0598 247.74L39.1252 246.685L38.7467 240.922L22.6813 241.978L23.0598 247.74Z" fill="#F8C64D"/>
<path d="M31.4026 222.297L32.2133 207.304C31.8896 207.24 31.588 207.2 31.3084 207.185C31.0288 207.17 30.8191 207.159 30.6793 207.151C28.9785 207.059 27.5157 207.319 26.2909 207.93C25.0428 208.54 24.0566 209.492 23.3324 210.785C22.6082 212.077 22.192 213.726 22.0836 215.729C21.9841 217.57 22.1786 219.158 22.6673 220.493C23.1572 221.805 23.8829 222.86 24.8444 223.66C25.806 224.46 26.9445 225.012 28.26 225.317C28.537 225.379 28.8147 225.429 29.0931 225.467C29.3714 225.506 29.662 225.533 29.9649 225.549C31.5725 225.636 33.0366 225.353 34.3571 224.7C35.6544 224.046 36.7025 223.028 37.5017 221.646C38.3008 220.263 38.7571 218.524 38.8704 216.427C38.9574 214.819 38.833 213.446 38.4974 212.306C38.1385 211.165 37.6193 210.179 36.9399 209.347C36.2372 208.515 35.3993 207.804 34.4264 207.213L33.0482 212.607C33.4317 212.861 33.7538 213.171 34.0145 213.535C34.2519 213.899 34.4395 214.318 34.5774 214.793C34.692 215.266 34.7329 215.806 34.7002 216.412C34.6699 216.971 34.5128 217.5 34.2288 217.999C33.9215 218.496 33.4568 218.88 32.8346 219.15C32.1892 219.419 31.3422 219.525 30.2937 219.468L29.5286 219.357C28.7131 219.313 28.0321 219.159 27.4855 218.896C26.9402 218.609 26.5397 218.237 26.2841 217.779C26.0064 217.297 25.8852 216.73 25.9204 216.077C25.9507 215.518 26.0807 215.058 26.3106 214.696C26.5404 214.335 26.8591 214.06 27.2665 213.872C27.6739 213.683 28.1708 213.57 28.757 213.532L28.2921 222.129L31.4026 222.297Z" fill="#F8C64D"/>
<path d="M48.2353 197.763L24.8233 193.482L23.7344 199.439L47.1464 203.719L48.2353 197.763ZM35.0899 182.088C33.1848 181.74 31.5454 181.82 30.1717 182.327C28.7792 182.808 27.6588 183.552 26.8105 184.559C25.9622 185.567 25.4226 186.701 25.1918 187.964C24.9359 189.364 25.0713 190.634 25.5982 191.774C26.1293 192.891 26.9893 193.831 28.1782 194.594C29.3482 195.33 30.794 195.855 32.5155 196.17C34.214 196.48 35.7521 196.5 37.1298 196.23C38.5117 195.938 39.6486 195.363 40.5406 194.506C41.4367 193.626 42.0128 192.486 42.2688 191.086C42.4996 189.823 42.3965 188.571 41.9594 187.329C41.5223 186.087 40.7376 184.994 39.6053 184.052C38.4772 183.087 36.9721 182.432 35.0899 182.088ZM33.9443 188.354C34.6329 188.48 35.2024 188.738 35.6528 189.129C36.1032 189.52 36.4085 189.991 36.5687 190.542C36.7289 191.093 36.7523 191.678 36.639 192.298C36.5425 192.826 36.3333 193.321 36.0114 193.784C35.6708 194.22 35.2302 194.555 34.6894 194.788C34.1486 195.021 33.4995 195.069 32.7421 194.93C31.9846 194.792 31.3943 194.518 30.971 194.108C30.5478 193.699 30.2654 193.232 30.124 192.708C29.9639 192.157 29.932 191.617 30.0286 191.09C30.1419 190.47 30.3709 189.931 30.7157 189.472C31.0605 189.013 31.5127 188.681 32.0722 188.474C32.6087 188.264 33.2328 188.224 33.9443 188.354Z" fill="#F8C64D"/>
<path d="M38.3169 170.794C37.6479 170.588 37.0973 170.235 36.6651 169.736C36.2329 169.237 35.95 168.649 35.8163 167.973C35.6827 167.297 35.7188 166.625 35.9248 165.956C36.069 165.487 36.3016 165.01 36.6225 164.523C36.9211 164.029 37.302 163.584 37.7653 163.19C38.2354 162.773 38.7639 162.484 39.3506 162.323L33.9317 160.654C33.4547 161.093 32.9914 161.647 32.5418 162.314C32.0699 162.974 31.6485 163.906 31.2777 165.111C30.7352 166.872 30.5856 168.548 30.8289 170.136C31.0499 171.718 31.6388 173.096 32.5958 174.269C33.5374 175.414 34.8333 176.24 36.4835 176.748C38.1114 177.249 39.6476 177.295 41.0921 176.885C42.5435 176.453 43.8166 175.649 44.9114 174.472C45.9838 173.289 46.7913 171.816 47.3337 170.055C47.7045 168.851 47.8918 167.846 47.8954 167.042C47.8767 166.23 47.7825 165.505 47.6128 164.867L42.1939 163.198C42.566 163.655 42.8473 164.169 43.0376 164.74C43.2124 165.282 43.2955 165.845 43.2868 166.428C43.2781 167.011 43.1879 167.582 43.0162 168.139C42.8102 168.808 42.4842 169.392 42.038 169.889C41.5696 170.379 41.0163 170.71 40.3781 170.879C39.7399 171.049 39.0528 171.021 38.3169 170.794Z" fill="#F8C64D"/>
<path d="M46.8655 140.175L41.161 137.495L45.5459 158.081L51.2504 160.76L46.8655 140.175ZM37.6796 148.54L35.3706 153.833L51.2504 160.76L48.7474 153.368L37.6796 148.54ZM41.161 137.495L43.664 144.888L54.7317 149.716L57.0408 144.423L41.161 137.495Z" fill="#F8C64D"/>
<path d="M45.3978 131.944L49.6618 134.358L55.5074 124.033L51.2434 121.619L45.3978 131.944ZM47.5071 129.639L60.9084 137.226L63.7536 132.201L50.3523 124.614L47.5071 129.639Z" fill="#F8C64D"/>
<path d="M62.9542 120.423L71.5634 108.121C71.3225 107.895 71.0874 107.702 70.858 107.542C70.6286 107.381 70.4565 107.261 70.3418 107.181C68.9463 106.204 67.5671 105.652 66.2041 105.524C64.8221 105.382 63.4821 105.669 62.1843 106.384C60.8864 107.099 59.6622 108.279 58.5116 109.923C57.4547 111.433 56.781 112.884 56.4906 114.276C56.2136 115.648 56.272 116.928 56.6659 118.115C57.0598 119.302 57.7347 120.372 58.6906 121.326C58.8932 121.525 59.1026 121.714 59.3186 121.894C59.5346 122.074 59.7669 122.25 60.0154 122.424C61.3345 123.347 62.7271 123.881 64.1933 124.024C65.6403 124.154 67.0682 123.843 68.4769 123.091C69.8856 122.34 71.1921 121.104 72.3961 119.384C73.3193 118.065 73.9394 116.832 74.2566 115.687C74.5547 114.529 74.6349 113.417 74.4971 112.353C74.3403 111.275 74.0047 110.228 73.4904 109.213L69.4708 113.064C69.662 113.483 69.772 113.916 69.8007 114.363C69.8103 114.797 69.7482 115.252 69.6145 115.728C69.4616 116.191 69.2112 116.671 68.8634 117.168C68.5423 117.626 68.1294 117.992 67.6248 118.266C67.1011 118.526 66.5037 118.606 65.8328 118.507C65.1427 118.394 64.3675 118.037 63.5073 117.435L62.9165 116.936C62.2475 116.468 61.7504 115.977 61.4254 115.465C61.1137 114.934 60.9703 114.406 60.9951 113.882C61.0142 113.326 61.211 112.78 61.5856 112.245C61.9067 111.786 62.2603 111.464 62.6464 111.279C63.0325 111.093 63.4483 111.028 63.8937 111.084C64.3391 111.139 64.8208 111.305 65.3389 111.582L60.4021 118.637L62.9542 120.423Z" fill="#F8C64D"/>
<path d="M66.4195 99.7241L70.15 102.901L77.8428 93.8678L74.1123 90.6909L66.4195 99.7241ZM68.9267 97.8597L80.6512 107.844L84.3955 103.448L72.6709 93.463L68.9267 97.8597Z" fill="#F8C64D"/>
<path d="M102.112 71.0789L98.1245 66.1979L93.1855 86.6574L97.1725 91.5384L102.112 71.0789ZM90.2133 74.6542L85.844 78.4304L97.1725 91.5384L98.109 83.7901L90.2133 74.6542ZM98.1245 66.1979L97.1881 73.9462L105.084 83.0821L109.453 79.306L98.1245 66.1979Z" fill="#F8C64D"/>
<path d="M127.473 66.7815L132.475 63.4949L118.72 51.8027L119.981 59.1402L127.473 66.7815ZM118.974 66.0841L123.33 70.8018L123.183 57.9579L118.72 51.8027L118.974 66.0841ZM123.33 70.8018L120.729 64.9309L107.809 58.9717L111.688 65.5112L123.33 70.8018ZM113.111 76.2184L118.113 72.9318L114.073 63.0226L107.809 58.9717L113.111 76.2184Z" fill="#F8C64D"/>
<path d="M134.989 59.3665C135.44 60.2366 136.133 60.837 137.066 61.1678C138.01 61.4671 138.969 61.3644 139.942 60.8598C140.916 60.3551 141.542 59.6363 141.821 58.7034C142.088 57.7498 141.997 56.838 141.546 55.9679C141.084 55.0772 140.392 54.4767 139.469 54.1667C138.535 53.8359 137.582 53.9228 136.608 54.4275C135.634 54.9322 135.003 55.6667 134.715 56.631C134.436 57.5639 134.528 58.4757 134.989 59.3665Z" fill="#F8C64D"/>
<path d="M148.641 35.2003L155.125 32.9602L161.149 50.394L167.566 48.1766L161.543 30.7428L168.027 28.5027L166.05 22.7796L146.664 29.4773L148.641 35.2003Z" fill="#F8C64D"/>
<path d="M181.41 39.2389C181.335 38.8969 181.362 38.5807 181.489 38.2901C181.634 37.9717 181.875 37.7042 182.209 37.4877C182.539 37.2485 182.943 37.0765 183.422 36.9719C184.288 36.7825 185.029 36.7282 185.644 36.8087C186.258 36.8893 186.884 37.075 187.521 37.3657L186.938 34.6987C186.627 34.48 186.162 34.3189 185.543 34.2155C184.941 34.0844 184.26 34.0301 183.501 34.0528C182.736 34.0527 181.989 34.1323 181.26 34.2918C179.892 34.5907 178.74 35.0575 177.804 35.692C176.868 36.3265 176.197 37.0822 175.792 37.959C175.387 38.8358 175.296 39.7871 175.52 40.8129C175.739 41.8158 176.168 42.6297 176.806 43.2546C177.462 43.8516 178.266 44.2492 179.217 44.4474C180.185 44.6178 181.239 44.5784 182.379 44.3293C183.473 44.0901 184.414 43.6935 185.2 43.1394C185.982 42.5626 186.546 41.866 186.893 41.0498C187.258 40.2057 187.331 39.2822 187.111 38.2792L186.131 36.4156C186.305 37.2135 186.294 37.8727 186.097 38.3934C185.896 38.8913 185.567 39.2976 185.11 39.6124C184.671 39.8994 184.178 40.1026 183.631 40.2222C183.312 40.292 182.983 40.3162 182.644 40.2947C182.323 40.2455 182.048 40.1383 181.821 39.973C181.617 39.8027 181.48 39.558 181.41 39.2389ZM177.506 34.0016C177.722 33.7872 178.072 33.5316 178.557 33.2346C179.036 32.9148 179.589 32.6029 180.215 32.2989C180.864 31.9898 181.565 31.7531 182.317 31.5887C183.183 31.3993 183.878 31.4625 184.401 31.7781C184.941 32.066 185.281 32.5291 185.421 33.1673L187.536 42.8439L193.178 41.6107L190.771 30.6006C190.527 29.4836 189.978 28.6124 189.125 27.9868C188.295 27.3563 187.256 26.9743 186.008 26.8409C184.756 26.6847 183.389 26.7685 181.908 27.0924C180.494 27.4013 179.18 27.8916 177.966 28.5631C176.746 29.2118 175.682 29.8623 174.774 30.5147L177.506 34.0016Z" fill="#F8C64D"/>
<path d="M205.334 47.7155L203.134 24.0173L197.105 24.5769L199.305 48.2751L205.334 47.7155ZM216.877 30.8264C216.698 28.898 216.179 27.341 215.319 26.1554C214.48 24.9444 213.461 24.0665 212.262 23.5216C211.064 22.9767 209.825 22.7636 208.547 22.8822C207.13 23.0137 205.944 23.4871 204.988 24.3022C204.056 25.1151 203.383 26.197 202.97 27.5476C202.577 28.8729 202.462 30.4068 202.624 32.1493C202.783 33.8686 203.179 35.3551 203.811 36.6087C204.466 37.8602 205.326 38.7997 206.392 39.4272C207.481 40.0525 208.735 40.2994 210.152 40.1679C211.43 40.0493 212.608 39.6119 213.686 38.8557C214.764 38.0995 215.604 37.049 216.205 35.7044C216.83 34.3575 217.054 32.7315 216.877 30.8264ZM210.535 31.4151C210.599 32.1121 210.504 32.7302 210.25 33.2693C209.995 33.8085 209.624 34.2296 209.137 34.5326C208.649 34.8356 208.092 35.0162 207.465 35.0744C206.93 35.124 206.397 35.0564 205.864 34.8715C205.352 34.6612 204.911 34.3272 204.541 33.8695C204.17 33.4118 203.949 32.7996 203.878 32.0329C203.807 31.2662 203.911 30.6238 204.191 30.1057C204.471 29.5876 204.845 29.1897 205.311 28.9121C205.798 28.6091 206.309 28.4328 206.844 28.3832C207.471 28.325 208.052 28.3999 208.587 28.6081C209.122 28.8162 209.564 29.1618 209.913 29.6449C210.261 30.1048 210.468 30.6948 210.535 31.4151Z" fill="#F8C64D"/>
<path d="M229.805 34.0386C229.818 33.6888 229.921 33.3889 230.117 33.1389C230.337 32.8664 230.635 32.6666 231.013 32.5397C231.392 32.3894 231.826 32.3228 232.316 32.3398C233.202 32.3706 233.933 32.501 234.509 32.7312C235.084 32.9613 235.645 33.296 236.19 33.7352L236.285 31.0068C236.038 30.7181 235.627 30.447 235.052 30.1935C234.501 29.9175 233.855 29.6966 233.114 29.5308C232.373 29.3416 231.63 29.2341 230.884 29.2082C229.485 29.1595 228.253 29.3269 227.189 29.7101C226.125 30.0934 225.288 30.6597 224.679 31.409C224.069 32.1583 223.746 33.0576 223.709 34.107C223.674 35.133 223.888 36.0276 224.352 36.7909C224.84 37.5316 225.52 38.1156 226.392 38.5428C227.288 38.9475 228.32 39.1701 229.486 39.2106C230.605 39.2495 231.614 39.0978 232.513 38.7555C233.413 38.3899 234.132 37.8545 234.67 37.1494C235.233 36.4219 235.532 35.5451 235.567 34.519L235.078 32.4708C235.05 33.287 234.876 33.923 234.557 34.3788C234.238 34.8114 233.819 35.1236 233.298 35.3157C232.802 35.4852 232.274 35.5603 231.714 35.5408C231.388 35.5295 231.063 35.4715 230.74 35.3669C230.441 35.2397 230.202 35.068 230.022 34.8516C229.866 34.6361 229.794 34.3651 229.805 34.0386ZM227.319 27.9986C227.581 27.8443 227.983 27.6832 228.526 27.5153C229.07 27.324 229.683 27.1585 230.365 27.0188C231.07 26.8799 231.807 26.8238 232.577 26.8505C233.463 26.8813 234.12 27.1143 234.549 27.5494C235.001 27.9621 235.216 28.4948 235.194 29.1478L234.85 39.0468L240.621 39.2474L241.013 27.9842C241.052 26.8415 240.736 25.8616 240.064 25.0445C239.415 24.2281 238.503 23.601 237.328 23.1633C236.153 22.7022 234.808 22.4453 233.292 22.3927C231.846 22.3424 230.452 22.4924 229.109 22.8427C227.767 23.1696 226.575 23.5368 225.533 23.9442L227.319 27.9986Z" fill="#F8C64D"/>
<path d="M252.474 32.5476C252.573 31.8546 252.836 31.2559 253.262 30.7513C253.688 30.2467 254.224 29.8758 254.871 29.6386C255.518 29.4014 256.188 29.3325 256.881 29.4319C257.366 29.5015 257.874 29.6569 258.405 29.8981C258.94 30.1163 259.438 30.4235 259.899 30.8197C260.384 31.2193 260.752 31.6964 261.002 32.2509L261.808 26.6384C261.3 26.2355 260.681 25.8639 259.952 25.5235C259.227 25.1601 258.24 24.8889 256.993 24.7099C255.168 24.4481 253.49 24.5609 251.959 25.0484C250.431 25.5127 249.161 26.3088 248.151 27.4367C247.167 28.5449 246.552 29.9535 246.307 31.6627C246.065 33.3488 246.259 34.8734 246.888 36.2366C247.541 37.6031 248.533 38.7356 249.866 39.634C251.202 40.5093 252.782 41.0778 254.607 41.3396C255.854 41.5186 256.875 41.5473 257.671 41.4257C258.469 41.281 259.17 41.0752 259.775 40.8082L260.58 35.1957C260.187 35.6344 259.723 35.9921 259.188 36.269C258.68 36.526 258.137 36.6956 257.56 36.7778C256.982 36.8599 256.405 36.8596 255.827 36.7767C255.134 36.6773 254.507 36.4459 253.947 36.0826C253.389 35.6962 252.977 35.2009 252.71 34.5969C252.443 33.9929 252.364 33.3097 252.474 32.5476Z" fill="#F8C64D"/>
<path d="M270.459 39.0966C270.545 38.7575 270.711 38.4866 270.955 38.2839C271.227 38.0644 271.562 37.9329 271.958 37.8894C272.36 37.8233 272.799 37.8508 273.274 37.9717C274.133 38.1906 274.819 38.4738 275.333 38.8213C275.846 39.1688 276.322 39.6152 276.761 40.1605L277.435 37.515C277.256 37.1803 276.912 36.8279 276.404 36.4577C275.925 36.0708 275.341 35.7173 274.652 35.3973C273.969 35.0547 273.265 34.7912 272.542 34.6069C271.185 34.2612 269.946 34.1623 268.825 34.3101C267.704 34.4579 266.766 34.8329 266.01 35.435C265.255 36.0372 264.747 36.847 264.488 37.8645C264.235 38.8594 264.253 39.7791 264.544 40.6236C264.863 41.4513 265.403 42.1668 266.164 42.7701C266.954 43.3565 267.914 43.7937 269.044 44.0817C270.13 44.3582 271.148 44.425 272.099 44.2822C273.057 44.1167 273.873 43.7468 274.549 43.1726C275.254 42.5815 275.733 41.7885 275.986 40.7937L275.944 38.6882C275.743 39.4796 275.438 40.064 275.028 40.4413C274.625 40.7961 274.149 41.0118 273.599 41.0886C273.078 41.1485 272.547 41.1093 272.004 40.9711C271.687 40.8904 271.382 40.7646 271.089 40.5935C270.824 40.4055 270.627 40.1868 270.498 39.9372C270.391 39.6934 270.378 39.4132 270.459 39.0966ZM269.316 32.6655C269.605 32.5706 270.033 32.4989 270.599 32.4505C271.171 32.3795 271.805 32.3484 272.501 32.3571C273.22 32.3717 273.952 32.474 274.698 32.6641C275.557 32.883 276.15 33.2506 276.476 33.7671C276.83 34.2667 276.927 34.833 276.765 35.4662L274.32 45.0646L279.916 46.4903L282.699 35.5691C282.981 34.4612 282.881 33.4364 282.398 32.4948C281.938 31.559 281.181 30.752 280.126 30.0738C279.076 29.373 277.817 28.8354 276.347 28.461C274.945 28.1039 273.551 27.9533 272.164 28.0094C270.783 28.0428 269.54 28.1476 268.436 28.3237L269.316 32.6655Z" fill="#F8C64D"/>
<path d="M322.437 58.0409L316.573 55.0561L324.94 38.6179L319.139 35.6649L310.772 52.1031L304.908 49.1183L313.274 32.6802L307.223 29.6001L296.11 51.4345L325.742 66.5171L336.856 44.6827L330.804 41.6027L322.437 58.0409Z" fill="#F8C64D"/>
<path d="M337.949 67.1473L349.961 76.1562C350.194 75.9229 350.395 75.6942 350.563 75.4702C350.731 75.2462 350.857 75.0782 350.941 74.9662C351.963 73.6035 352.56 72.2432 352.733 70.8852C352.919 69.5085 352.677 68.1599 352.005 66.8392C351.333 65.5185 350.194 64.2562 348.589 63.0522C347.114 61.9462 345.686 61.2252 344.305 60.8893C342.942 60.5673 341.661 60.5836 340.462 60.9383C339.262 61.293 338.17 61.9323 337.186 62.8563C336.98 63.0523 336.784 63.2553 336.598 63.4653C336.411 63.6753 336.227 63.9016 336.045 64.1443C335.079 65.4323 334.5 66.8066 334.309 68.2673C334.131 69.7093 334.395 71.1466 335.1 72.5793C335.804 74.012 336.997 75.3583 338.677 76.6183C339.965 77.5843 341.176 78.2446 342.31 78.5993C343.458 78.9353 344.566 79.0519 345.635 78.9492C346.717 78.8279 347.774 78.5269 348.806 78.0462L345.089 73.9023C344.664 74.0796 344.228 74.1753 343.78 74.1893C343.346 74.1846 342.893 74.1076 342.422 73.9583C341.964 73.7903 341.493 73.5243 341.008 73.1603C340.56 72.8243 340.207 72.3996 339.951 71.8863C339.708 71.3543 339.647 70.7546 339.769 70.0873C339.904 69.4013 340.287 68.6383 340.917 67.7983L341.435 67.2243C341.925 66.5709 342.431 66.0903 342.954 65.7823C343.495 65.4883 344.027 65.3623 344.55 65.4043C345.105 65.4416 345.644 65.6562 346.167 66.0482C346.615 66.3842 346.925 66.7482 347.098 67.1402C347.27 67.5322 347.322 67.9499 347.252 68.3932C347.182 68.8366 347 69.3126 346.706 69.8212L339.818 64.6553L337.949 67.1473Z" fill="#F8C64D"/>
<path d="M358.521 81.6356L357.123 83.1071L360.497 86.3139C360.734 86.5389 360.896 86.7576 360.984 86.9699C361.088 87.1653 361.134 87.354 361.122 87.5358C361.143 87.7168 361.114 87.8826 361.036 88.0332C360.99 88.1829 360.903 88.3254 360.774 88.4607C360.533 88.7144 360.224 88.8708 359.846 88.9299C359.467 88.9891 359.042 88.7936 358.568 88.3435L355.194 85.1367L352.734 87.7244L357.656 92.4021C358.992 93.6719 360.237 94.2757 361.391 94.2133C362.578 94.1501 363.589 93.6788 364.425 92.7993C365.148 92.0382 365.525 91.2694 365.555 90.4929C365.584 89.7164 365.358 88.9382 364.876 88.1583C364.394 87.3783 363.747 86.6026 362.936 85.831L358.521 81.6356ZM358.039 82.143L362.2 86.0973C362.927 86.7885 363.683 87.3139 364.468 87.6735C365.286 88.0323 366.082 88.1771 366.856 88.1079C367.646 88.0218 368.354 87.6489 368.981 86.9893C369.704 86.2282 370.097 85.4425 370.159 84.6322C370.237 83.805 370.068 83.0006 369.652 82.219C369.269 81.4365 368.714 80.6996 367.986 80.0085L363.826 76.0542L361.366 78.6419L364.487 81.6076C364.808 81.9131 364.948 82.2396 364.908 82.5872C364.9 82.934 364.776 83.2342 364.535 83.4879C364.422 83.6063 364.284 83.7006 364.121 83.7708C363.991 83.8401 363.835 83.8853 363.654 83.9064C363.489 83.9106 363.323 83.8819 363.157 83.8201C363.007 83.7744 362.848 83.6711 362.678 83.5104L359.558 80.5447L358.039 82.143ZM361.314 73.6672L350.223 85.3374L354.409 89.3158L365.5 77.6455L361.314 73.6672Z" fill="#F8C64D"/>
<path d="M371.762 101.931L375.294 106.14L379.021 103.013L376.771 100.332L371.762 101.931ZM383.449 96.6926L371.116 107.042L375.008 111.68L387.341 101.331L383.449 96.6926ZM381.042 93.8238L377.15 89.1855L373.611 92.1553C372.413 93.1602 371.487 94.1806 370.834 95.2165C370.198 96.2375 369.931 97.2989 370.033 98.401C370.151 99.5209 370.727 100.698 371.762 101.931L376.771 100.332C376.441 99.9386 376.225 99.5719 376.122 99.2317C376.037 98.8764 376.067 98.5313 376.212 98.1962C376.358 97.8611 376.645 97.5135 377.074 97.1536L381.042 93.8238Z" fill="#F8C64D"/>
<path d="M385.655 114.726L393.9 127.275C394.199 127.135 394.465 126.988 394.699 126.834C394.933 126.68 395.109 126.565 395.226 126.488C396.649 125.552 397.672 124.475 398.295 123.256C398.938 122.025 399.167 120.673 398.982 119.203C398.798 117.733 398.155 116.159 397.053 114.482C396.041 112.942 394.942 111.779 393.756 110.995C392.584 110.23 391.373 109.811 390.124 109.738C388.876 109.664 387.632 109.896 386.392 110.431C386.133 110.546 385.879 110.67 385.633 110.805C385.386 110.939 385.136 111.089 384.882 111.256C383.536 112.14 382.526 113.237 381.851 114.546C381.195 115.842 380.956 117.284 381.133 118.871C381.31 120.457 381.975 122.128 383.128 123.883C384.012 125.229 384.928 126.261 385.874 126.979C386.84 127.684 387.843 128.17 388.883 128.436C389.943 128.689 391.039 128.764 392.173 128.661L390.081 123.502C389.622 123.525 389.179 123.467 388.752 123.329C388.346 123.177 387.946 122.951 387.553 122.651C387.18 122.338 386.827 121.928 386.494 121.421C386.186 120.953 385.999 120.434 385.931 119.864C385.883 119.281 386.03 118.696 386.37 118.109C386.73 117.51 387.349 116.922 388.226 116.345L388.908 115.981C389.591 115.533 390.23 115.252 390.826 115.14C391.435 115.047 391.978 115.108 392.456 115.325C392.966 115.549 393.4 115.933 393.759 116.479C394.066 116.947 394.235 117.395 394.264 117.822C394.294 118.25 394.2 118.66 393.984 119.053C393.768 119.447 393.435 119.833 392.986 120.212L388.258 113.016L385.655 114.726Z" fill="#F8C64D"/>
<path d="M397.211 134.055L403.067 145.996L406.932 144.1L401.076 132.159L397.211 134.055ZM410.725 139.434L396.27 146.523L398.813 151.708L413.268 144.619L410.725 139.434ZM405.254 128.278L390.799 135.368L393.342 140.553L407.797 133.463L405.254 128.278Z" fill="#F8C64D"/>
<path d="M416.742 152.915L401.485 158.058L403.33 163.531L418.586 158.388L416.742 152.915ZM420.442 163.893L411.949 159.517L405.454 169.832L407.701 176.499L414.241 166.316L422.734 170.693L420.442 163.893Z" fill="#F8C64D"/>
<path d="M416.386 177.918C414.716 178.256 413.345 178.951 412.272 180.001C411.2 181.052 410.462 182.344 410.058 183.878C409.682 185.43 409.673 187.087 410.03 188.848C410.391 190.632 411.045 192.154 411.991 193.414C412.959 194.67 414.142 195.573 415.539 196.124C416.941 196.697 418.477 196.814 420.146 196.476C421.838 196.133 423.219 195.425 424.287 194.351C425.359 193.3 426.086 192.01 426.466 190.481C426.87 188.947 426.891 187.288 426.529 185.504C426.172 183.743 425.507 182.224 424.534 180.945C423.588 179.684 422.417 178.779 421.02 178.229C419.622 177.679 418.078 177.575 416.386 177.918ZM417.623 184.024C418.355 183.875 419 183.888 419.559 184.06C420.145 184.251 420.624 184.558 420.996 184.983C421.367 185.408 421.611 185.906 421.727 186.478C421.843 187.049 421.812 187.603 421.635 188.139C421.458 188.675 421.137 189.145 420.671 189.548C420.228 189.948 419.641 190.221 418.909 190.37C418.177 190.518 417.518 190.497 416.932 190.306C416.368 190.111 415.901 189.801 415.529 189.376C415.18 188.947 414.948 188.446 414.832 187.875C414.716 187.303 414.735 186.752 414.89 186.22C415.067 185.684 415.377 185.217 415.82 184.818C416.29 184.437 416.891 184.172 417.623 184.024Z" fill="#F8C64D"/>
</svg>
